# xmcd
#
# Track frame offsets:
#	183
#	17938
#	34833
#	54958
#	68758
#	88420
#	105435
#	123690
#	139718
#	160025
#	181630
#	199605
#	214038
#	232593
#
# Disc length: 3290 seconds
#
# Revision: 0
# Processed by: cddbd v1.5.2PL0 Copyright (c) Steve Scherf et al.
# Submitted via: EasyCDDAExtractor 2011.3.0.0
#
DISCID=b20cd80e
DTITLE=Oscar de Fontana - Mucho... Mucho... Mucho
DYEAR=1900
DGENRE=
TTITLE0=Amigo
TTITLE1=Un tipo como yo
TTITLE2=Aun te sigo amando - Silencio corazon
TTITLE3=Las perlas de tu boca -Si llego a besarte
TTITLE4=Di como te dejo de amar
TTITLE5=Lejos de ti
TTITLE6=Te cambio mi vida
TTITLE7=Te quiero mucho
TTITLE8=Pesadilla
TTITLE9=Todavia me acuerdo de ti
TTITLE10=En la cascada
TTITLE11=Buscame
TTITLE12=Te lo dije
TTITLE13=El gago contemplon
EXTD=
EXTT0=
EXTT1=
EXTT2=
EXTT3=
EXTT4=
EXTT5=
EXTT6=
EXTT7=
EXTT8=
EXTT9=
EXTT10=
EXTT11=
EXTT12=
EXTT13=
PLAYORDER=
